<svg width="178" height="48" viewBox="0 0 178 48" fill="none" xmlns="http://www.w3.org/2000/svg">
<path d="M82.4927 14.8745V30.7597H79.0971V24.1637H71.8766V30.7207H68.481V14.8745H71.8766V21.1193H79.0971V14.8745H82.4927Z" fill="#485776"/>
<path d="M87.4497 22.7979C87.4497 18.3484 91.3137 14.6016 95.8802 14.6016C100.486 14.6016 104.311 18.3484 104.311 22.7979C104.311 27.2473 100.486 31.0332 95.8802 31.0332C91.3527 31.0332 87.4497 27.2473 87.4497 22.7979ZM100.837 22.7979C100.837 20.0658 98.5733 17.6849 95.8802 17.6849C93.2262 17.6849 90.9624 20.0267 90.9624 22.7979C90.9624 25.569 93.2262 27.9108 95.8802 27.9108C98.5733 27.9108 100.837 25.569 100.837 22.7979Z" fill="#485776"/>
<path d="M118.869 30.7597L115.239 25.6078H112.702V30.7597H109.306V14.8745H116.449C119.883 14.8745 122.42 17.0992 122.42 20.2216C122.42 22.5634 120.976 24.4369 118.829 25.1784L122.732 30.7207H118.869V30.7597ZM112.702 22.4854H116.058C117.737 22.4854 118.908 21.5877 118.908 20.2607C118.908 18.8946 117.737 18.0359 116.058 18.0359H112.702V22.4854Z" fill="#485776"/>
<path d="M127.572 14.8745H130.968L138.618 25.1394V14.8745H142.052V30.7597H138.618L130.968 20.4948V30.7597H127.572V14.8745Z" fill="#485776"/>
<path d="M151.186 17.9189V21.0803H159.148V24.1637H151.186V27.6764H160.007V30.7597H147.791V14.8745H160.007V17.9189H151.186Z" fill="#485776"/>
<path d="M169.14 17.9188H164.183V14.8354H177.492V17.9188H172.535V30.7207H169.101V17.9188H169.14Z" fill="#485776"/>
<path d="M45.2495 20.4016C44.5126 20.6025 44.0437 21.4064 44.2781 22.1432C45.7519 27.4017 44.3786 32.3252 42.57 35.2056C42.1681 35.8755 42.369 36.7463 43.0389 37.1482C43.2733 37.2822 43.5413 37.3492 43.7757 37.3492C44.2447 37.3492 44.7136 37.1147 44.9815 36.6793C47.6945 32.3587 48.4648 26.4639 46.9911 21.3394C46.7901 20.6025 46.0198 20.1671 45.2495 20.4016Z" fill="#C3D0E4"/>
<path d="M16.3112 43.579C8.23936 40.7656 2.84693 32.9951 2.84693 24.2534C2.84693 19.0284 4.9905 13.8035 8.70826 9.95174C12.5935 5.89904 17.8184 3.68849 23.3783 3.68849C26.4262 3.68849 29.5076 4.32486 31.6512 5.39664C32.3545 5.76507 33.1919 5.46363 33.5603 4.76027C33.8952 4.05691 33.6273 3.21958 32.9239 2.85115C30.4119 1.57841 26.9286 0.841553 23.3783 0.841553C17.0481 0.841553 11.0863 3.38705 6.66517 7.97563C2.44501 12.3633 0 18.2916 0 24.2534C0 34.2009 6.16277 43.0431 15.3734 46.2585C15.5409 46.3255 15.6749 46.3255 15.8423 46.3255C16.4117 46.3255 16.9811 45.9571 17.1821 45.3877C17.45 44.6508 17.0481 43.847 16.3112 43.579Z" fill="#C3D0E4"/>
<path d="M41.0631 18.6599C44.6134 16.3153 46.891 12.5306 47.6948 7.74103C48.2642 4.19074 47.8288 1.3438 47.8288 1.20983C47.7618 0.707431 47.4269 0.305511 46.958 0.104551C46.4891 -0.0964087 45.9532 0.00407129 45.5847 0.305511L24.0485 16.9517C24.417 15.478 24.149 13.9708 23.2782 12.765C21.8715 10.8894 19.4934 10.5545 17.6178 11.2913L17.3499 11.1239C15.9766 10.2195 14.5364 10.0186 13.0962 10.5545C10.3163 11.5928 8.13921 15.277 7.2014 18.4589C7.13441 18.7268 7.26838 19.0283 7.53633 19.1288C7.60332 19.1623 7.6703 19.1623 7.77078 19.1623C7.97174 19.1623 8.1727 19.0618 8.27318 18.8608C9.74689 15.8799 12.1919 13.3009 13.967 12.8655C14.4694 12.7315 14.9049 12.7985 15.2733 13.033L15.3738 13.1C14.436 14.2722 13.8666 15.7794 13.6656 17.5546C13.4646 19.3967 13.7326 21.4063 14.3355 22.7795C14.5699 23.3154 15.0723 23.6169 15.6417 23.6169C15.7757 23.6169 15.9432 23.5834 16.0771 23.5499C17.3834 23.1145 19.4934 22.2771 21.2351 20.9709C21.0006 21.4733 20.8667 22.0092 20.8332 22.5786C20.7327 23.8848 21.1346 25.1576 21.972 26.1624C22.8093 27.1672 24.015 27.8035 25.3213 27.904C25.4553 27.904 25.6227 27.9375 25.7567 27.9375C25.7902 27.9375 25.8572 27.9375 25.8907 27.9375C24.6849 29.6457 24.2495 32.0572 25.3883 34.7032C27.8668 40.397 24.7519 44.1818 22.5413 45.5215C22.0389 45.8229 21.771 46.4258 21.9385 46.9952C22.1059 47.5646 22.6083 47.9665 23.2112 48C23.4122 48 23.6131 48 23.8141 48C31.7855 48 35.3023 44.0813 36.709 41.7033C38.9531 37.885 38.8526 32.9615 36.4411 28.8753C35.2018 26.7652 32.7903 25.0236 30.0773 25.392C30.4123 24.7891 30.6132 24.1528 30.6802 23.4494C30.7472 22.6791 30.6467 21.9422 30.3453 21.2388C30.9817 21.3058 31.618 21.3393 32.2879 21.3393C35.0009 21.2388 38.1157 20.636 41.0631 18.6599ZM16.546 20.301C16.4121 19.5642 16.3451 18.6933 16.4456 17.789C16.5795 16.6168 16.9814 15.0426 18.2542 14.1383C18.5556 13.9038 19.0245 13.7698 19.4934 13.7698C20.0293 13.7698 20.5987 13.9708 20.9672 14.4732C21.637 15.411 21.3356 16.6503 20.7327 17.4541C19.9289 18.4924 18.4552 19.5307 16.546 20.301ZM25.5222 25.0236C24.9529 24.9901 24.4505 24.7221 24.082 24.2867C23.7136 23.8513 23.5461 23.3154 23.5796 22.746C23.6131 22.1767 23.8811 21.6743 24.3165 21.3058C24.6849 20.9709 25.1873 20.8034 25.6562 20.8034C25.7232 20.8034 25.7902 20.8034 25.8237 20.8034C26.3931 20.8369 26.8955 21.1049 27.2639 21.5403C27.6323 21.9757 27.7998 22.5116 27.7663 23.081C27.7328 23.6504 27.4649 24.1528 27.0294 24.5212C26.6275 24.8896 26.0916 25.0571 25.5222 25.0236ZM30.8142 27.9375C31.685 27.9375 32.6228 28.3059 33.4602 29.2437C33.5606 29.3442 33.5606 29.4782 33.5271 29.5787C33.0247 30.6505 31.953 31.9567 30.9147 32.6266C30.7472 32.727 30.6802 32.9615 30.7472 33.129C30.8142 33.3299 31.0486 33.4304 31.2496 33.3969C32.0869 33.2294 33.2927 32.7605 34.2975 32.1242C34.398 32.0572 34.465 32.0237 34.5654 31.9567C34.7329 31.8227 35.0008 31.9232 35.0678 32.1242C35.5033 33.3634 35.7042 34.6362 35.6707 35.8754C35.6707 36.0094 35.5702 36.1434 35.4363 36.1769C34.3645 36.5453 33.0917 36.7462 32.0869 36.5788C31.8525 36.5453 31.618 36.6123 31.551 36.8467C31.4506 37.0812 31.5845 37.2821 31.7855 37.4161C32.5223 37.8515 33.6276 38.3204 34.7999 38.5884C35.0009 38.6219 35.1348 38.8563 35.0343 39.0238C34.8669 39.4592 34.6659 39.8611 34.4315 40.263C34.063 40.8994 33.6276 41.4688 33.1252 41.9712C33.0247 42.0717 32.8573 42.1052 32.7233 42.0382C32.1874 41.7702 31.685 41.4353 31.3166 41.1339C31.1826 40.9999 30.9817 40.9999 30.8477 41.1339C30.7137 41.2343 30.6467 41.4688 30.7472 41.6363C30.9147 41.9712 31.2161 42.4066 31.551 42.8755C31.6515 43.043 31.618 43.2439 31.4841 43.3444C30.4123 44.0143 29.2065 44.5167 27.8333 44.8516C27.5318 44.9186 27.3309 44.6172 27.4649 44.3492C29.5079 41.0334 29.307 36.8467 27.9003 33.5979C26.795 31.0524 27.9003 29.0763 29.4075 28.3394C29.7424 28.0715 30.2448 27.9375 30.8142 27.9375ZM27.6658 17.7555L45.1493 4.22423C45.1158 7.50658 44.2785 13.1335 39.489 16.3153C35.2688 19.0953 30.4458 18.4924 27.6658 17.7555Z" fill="#485776"/>
</svg>
