<svg width="1189" height="523" fill="none" version="1.1" viewBox="0 0 1189 523" xmlns="http://www.w3.org/2000/svg" xmlns:cc="http://creativecommons.org/ns#" xmlns:dc="http://purl.org/dc/elements/1.1/" xmlns:rdf="http://www.w3.org/1999/02/22-rdf-syntax-ns#">
    <metadata>
        <rdf:RDF>
            <cc:Work rdf:about="">
                <dc:format>image/svg+xml</dc:format>
                <dc:type rdf:resource="http://purl.org/dc/dcmitype/StillImage"/>
                <dc:title/>
                <dc:creator>
                    <cc:Agent>
                        <dc:title>IOTA Foundation Design Team</dc:title>
                    </cc:Agent>
                </dc:creator>
                <dc:rights>
                    <cc:Agent>
                        <dc:title>CC (BY-SA)</dc:title>
                    </cc:Agent>
                </dc:rights>
            </cc:Work>
        </rdf:RDF>
    </metadata>
    <g fill="#485776">
        <path d="m567.36 183.22v88.039h-18.86v-36.557h-40.104v36.34h-18.86v-87.822h18.86v34.61h40.104v-34.61h18.86z"/>
        <path d="m594.89 227.13c0-24.659 21.461-45.425 46.824-45.425 25.58 0 46.824 20.766 46.824 45.425 0 24.66-21.244 45.642-46.824 45.642-25.146 0-46.824-20.982-46.824-45.642zm74.355 0c0-15.142-12.573-28.337-27.531-28.337-14.741 0-27.314 12.979-27.314 28.337s12.573 28.337 27.314 28.337c14.958 0 27.531-12.979 27.531-28.337z"/>
        <path d="m769.4 271.26-20.16-28.553h-14.091v28.553h-18.859v-88.039h39.67c19.077 0 33.167 12.33 33.167 29.635 0 12.978-8.021 23.361-19.943 27.471l21.677 30.716h-21.461v0.217zm-34.251-45.858h18.643c9.322 0 15.825-4.975 15.825-12.33 0-7.571-6.503-12.33-15.825-12.33h-18.643v24.66z"/>
        <path d="m817.74 183.22h18.86l42.489 56.89v-56.89h19.076v88.039h-19.076l-42.489-56.89v56.89h-18.86v-88.039z"/>
        <path d="m948.89 200.1v17.521h44.223v17.089h-44.223v19.468h48.992v17.089h-67.852v-88.039h67.852v16.872h-48.992z"/>
        <path d="m1048.6 200.1h-27.53v-17.088h73.92v17.088h-27.53v70.95h-19.08v-70.95h0.22z"/>
    </g>
    <path d="m387.87 237.76c-4.769 1.298-7.804 6.489-6.287 11.248 9.539 33.961 0.651 65.758-11.055 84.361-2.602 4.326-1.301 9.951 3.035 12.546 1.517 0.866 3.251 1.298 4.769 1.298 3.035 0 6.069-1.514 7.804-4.326 17.559-27.904 22.545-65.975 13.006-99.071-1.3-4.758-6.286-7.57-11.272-6.056z" fill="#C3D0E4"/>
    <path d="m200.57 387.45c-52.243-18.17-87.145-68.354-87.145-124.81 0-33.745 13.874-67.489 37.936-92.365 25.147-26.174 58.964-40.45 94.949-40.45 19.727 0 39.671 4.11 53.545 11.032 4.552 2.379 9.972 0.432 12.356-4.11 2.168-4.543 0.434-9.951-4.119-12.33-16.258-8.22-38.803-12.979-61.782-12.979-40.971 0-79.557 16.44-108.17 46.074-27.314 28.337-43.139 66.624-43.139 105.13 0 64.244 39.887 121.35 99.501 142.12 1.084 0.433 1.951 0.433 3.035 0.433 3.685 0 7.371-2.38 8.671-6.057 1.735-4.759-0.867-9.95-5.636-11.681z" fill="#C3D0E4"/>
    <path d="m360.77 226.51c22.978-15.142 37.719-39.585 42.922-70.518 3.685-22.929 0.867-41.315 0.867-42.181-0.433-3.244-2.601-5.84-5.636-7.138s-6.503-0.649-8.888 1.298l-139.39 107.51c2.385-9.518 0.651-19.252-4.985-27.039-9.105-12.114-24.496-14.277-36.636-9.518l-1.734-1.081c-8.888-5.841-18.21-7.139-27.531-3.678-17.993 6.706-32.083 30.5-38.153 51.05-0.434 1.73 0.433 3.677 2.168 4.326 0.433 0.216 0.867 0.216 1.517 0.216 1.301 0 2.601-0.649 3.252-1.947 9.538-19.251 25.363-35.907 36.852-38.719 3.252-0.866 6.07-0.433 8.454 1.081l0.651 0.433c-6.07 7.571-9.755 17.305-11.056 28.769-1.301 11.897 0.434 24.876 4.336 33.745 1.517 3.461 4.769 5.408 8.454 5.408 0.867 0 1.951-0.217 2.818-0.433 8.454-2.812 22.112-8.22 33.384-16.656-1.517 3.245-2.385 6.706-2.601 10.383-0.651 8.436 1.951 16.656 7.37 23.145 5.42 6.49 13.224 10.599 21.678 11.248 0.867 0 1.951 0.217 2.818 0.217h0.867c-7.804 11.032-10.622 26.606-3.251 43.695 16.041 36.772-4.119 61.216-18.427 69.868-3.251 1.947-4.986 5.84-3.902 9.518 1.084 3.677 4.336 6.273 8.238 6.489h3.902c51.593 0 74.355-25.308 83.46-40.666 14.524-24.66 13.874-56.458-1.735-82.848-8.02-13.627-23.628-24.875-41.187-22.496 2.167-3.894 3.468-8.003 3.902-12.546 0.433-4.975-0.217-9.734-2.168-14.277 4.119 0.433 8.237 0.649 12.573 0.649 17.559-0.649 37.719-4.542 56.796-17.304zm-158.68 10.599c-0.867-4.759-1.301-10.383-0.65-16.224 0.867-7.57 3.468-17.737 11.706-23.577 1.951-1.515 4.986-2.38 8.021-2.38 3.468 0 7.153 1.298 9.538 4.543 4.335 6.056 2.384 14.06-1.518 19.251-5.202 6.706-14.741 13.412-27.097 18.387zm58.097 30.5c-3.686-0.217-6.937-1.947-9.322-4.759-2.384-2.812-3.468-6.273-3.251-9.951 0.216-3.677 1.951-6.921 4.769-9.301 2.384-2.163 5.636-3.245 8.671-3.245h1.084c3.685 0.217 6.937 1.947 9.321 4.759 2.385 2.812 3.469 6.273 3.252 9.951-0.217 3.677-1.951 6.922-4.769 9.301-2.602 2.379-6.07 3.461-9.755 3.245zm34.251 18.819c5.636 0 11.706 2.379 17.125 8.436 0.651 0.649 0.651 1.514 0.434 2.163-3.252 6.922-10.189 15.358-16.909 19.684-1.084 0.649-1.517 2.163-1.084 3.245 0.434 1.298 1.951 1.947 3.252 1.73 5.419-1.081 13.223-4.109 19.727-8.219 0.65-0.433 1.084-0.649 1.734-1.082 1.084-0.865 2.818-0.216 3.252 1.082 2.818 8.003 4.118 16.223 3.902 24.226 0 0.866-0.651 1.731-1.518 1.947-6.937 2.38-15.174 3.678-21.678 2.596-1.517-0.216-3.035 0.216-3.468 1.73-0.651 1.515 0.217 2.812 1.517 3.678 4.769 2.812 11.923 5.84 19.51 7.571 1.301 0.216 2.168 1.73 1.518 2.812-1.084 2.812-2.385 5.407-3.902 8.003-2.385 4.11-5.203 7.787-8.455 11.032-0.65 0.649-1.734 0.865-2.601 0.433-3.468-1.731-6.72-3.894-9.105-5.841-0.867-0.865-2.167-0.865-3.035 0-0.867 0.649-1.3 2.163-0.65 3.245 1.084 2.163 3.035 4.975 5.203 8.003 0.65 1.082 0.433 2.38-0.434 3.029-6.937 4.326-14.741 7.571-23.629 9.734-1.951 0.432-3.251-1.514-2.384-3.245 13.223-21.415 11.923-48.454 2.818-69.436-7.154-16.439 0-29.202 9.755-33.961 2.168-1.73 5.419-2.595 9.105-2.595zm-20.377-65.759 113.16-87.39c-0.217 21.199-5.636 57.539-36.636 78.089-27.314 17.954-58.53 14.06-76.522 9.301z" fill="#485776"/>
    <g fill="#8493AD" opacity=".6">
        <path d="m499.63 344.32c4.853 0 7.534-2.58 9.067-5.224l-3.895-1.88c-0.894 1.752-2.809 3.09-5.172 3.09-3.703 0-6.513-2.962-6.513-6.976s2.81-6.977 6.513-6.977c2.363 0 4.278 1.37 5.172 3.09l3.895-1.911c-1.501-2.644-4.214-5.193-9.067-5.193-6.225 0-11.174 4.46-11.174 10.991 0 6.53 4.949 10.99 11.174 10.99z"/>
        <path d="m514.87 333.33c0 6.403 4.693 10.99 11.11 10.99 6.449 0 11.142-4.587 11.142-10.99s-4.693-10.991-11.142-10.991c-6.417 0-11.11 4.588-11.11 10.991zm17.591 0c0 3.95-2.554 6.976-6.481 6.976s-6.449-3.026-6.449-6.976c0-3.982 2.522-6.977 6.449-6.977s6.481 2.995 6.481 6.977z"/>
        <path d="m563.33 343.94h4.565v-21.248h-6.385l-5.172 13.252-5.172-13.252h-6.353v21.248h4.534v-15.291l6.002 15.291h1.979l6.002-15.291v15.291z"/>
        <path d="m595.14 343.94h4.565v-21.248h-6.385l-5.172 13.252-5.172-13.252h-6.353v21.248h4.533v-15.291l6.002 15.291h1.98l6.002-15.291v15.291z"/>
        <path d="m608.44 335.47c0 5.225 3.033 8.856 9.546 8.856 6.449 0 9.482-3.6 9.482-8.888v-12.742h-4.598v12.615c0 2.962-1.628 5.001-4.884 5.001-3.321 0-4.949-2.039-4.949-5.001v-12.615h-4.597v12.774z"/>
        <path d="m650.85 343.94h4.374v-21.248h-4.533v13.762l-9.865-13.762h-4.662v21.248h4.534v-14.272l10.152 14.272z"/>
        <path d="m663.92 343.94h4.534v-21.248h-4.534v21.248z"/>
        <path d="m682.1 343.94h4.565v-17.266h6.194v-3.982h-16.984v3.982h6.225v17.266z"/>
        <path d="m706.21 343.94h4.533v-8.697l8.141-12.551h-5.172l-5.235 8.537-5.3-8.537h-5.172l8.205 12.551v8.697z"/>
        <path d="m738.02 343.94h8.397c6.672 0 11.301-4.205 11.301-10.608s-4.629-10.64-11.301-10.64h-8.397v21.248zm4.534-3.982v-13.284h3.863c4.374 0 6.672 2.899 6.672 6.658 0 3.6-2.458 6.626-6.672 6.626h-3.863z"/>
        <path d="m777.47 343.94h5.204l-4.789-8.092c2.299-0.541 4.661-2.548 4.661-6.307 0-3.95-2.713-6.849-7.151-6.849h-9.961v21.248h4.534v-7.614h3.32l4.182 7.614zm0.447-14.431c0 1.784-1.373 2.931-3.193 2.931h-4.756v-5.862h4.756c1.82 0 3.193 1.147 3.193 2.931z"/>
        <path d="m790.45 343.94h4.534v-21.248h-4.534v21.248z"/>
        <path d="m809.68 343.94h5.682l8.205-21.248h-5.172l-5.874 16.342-5.906-16.342h-5.172l8.237 21.248z"/>
        <path d="m830.04 343.94h15.069v-3.918h-10.535v-4.938h10.312v-3.887h-10.312v-4.619h10.535v-3.886h-15.069v21.248z"/>
        <path d="m867.84 343.94h4.374v-21.248h-4.533v13.762l-9.865-13.762h-4.661v21.248h4.533v-14.272l10.152 14.272z"/>
        <path d="m893.58 343.94h4.534v-21.248h-4.534v21.248z"/>
        <path d="m905.82 333.33c0 6.403 4.693 10.99 11.11 10.99 6.449 0 11.142-4.587 11.142-10.99s-4.693-10.991-11.142-10.991c-6.417 0-11.11 4.588-11.11 10.991zm17.591 0c0 3.95-2.554 6.976-6.481 6.976s-6.449-3.026-6.449-6.976c0-3.982 2.522-6.977 6.449-6.977s6.481 2.995 6.481 6.977z"/>
        <path d="m939.9 343.94h4.565v-17.266h6.194v-3.982h-16.984v3.982h6.225v17.266z"/>
        <path d="m970.91 343.94h4.949l-8.205-21.248h-5.683l-8.237 21.248h4.981l1.341-3.664h9.513l1.341 3.664zm-6.097-17.33 3.511 9.748h-7.055l3.544-9.748z"/>
        <path d="m1009.7 343.94h4.37v-21.248h-4.53v13.762l-9.869-13.762h-4.661v21.248h4.533v-14.272l10.157 14.272z"/>
        <path d="m1021.7 333.33c0 6.403 4.69 10.99 11.11 10.99 6.45 0 11.14-4.587 11.14-10.99s-4.69-10.991-11.14-10.991c-6.42 0-11.11 4.588-11.11 10.991zm17.59 0c0 3.95-2.56 6.976-6.48 6.976-3.93 0-6.45-3.026-6.45-6.976 0-3.982 2.52-6.977 6.45-6.977 3.92 0 6.48 2.995 6.48 6.977z"/>
        <path d="m1051.7 343.94h8.4c6.67 0 11.3-4.205 11.3-10.608s-4.63-10.64-11.3-10.64h-8.4v21.248zm4.54-3.982v-13.284h3.86c4.37 0 6.67 2.899 6.67 6.658 0 3.6-2.46 6.626-6.67 6.626h-3.86z"/>
        <path d="m1079.1 343.94h15.07v-3.918h-10.54v-4.938h10.31v-3.887h-10.31v-4.619h10.54v-3.886h-15.07v21.248z"/>
    </g>
</svg>