<svg width="210mm" height="210mm" version="1.1" viewBox="0 0 210 210" xmlns="http://www.w3.org/2000/svg" xmlns:cc="http://creativecommons.org/ns#" xmlns:dc="http://purl.org/dc/elements/1.1/" xmlns:rdf="http://www.w3.org/1999/02/22-rdf-syntax-ns#">
 <metadata>
  <rdf:RDF>
   <cc:Work rdf:about="">
    <dc:format>image/svg+xml</dc:format>
    <dc:type rdf:resource="http://purl.org/dc/dcmitype/StillImage"/>
    <dc:title/>
   </cc:Work>
  </rdf:RDF>
 </metadata>
 <g transform="translate(0,-87)" stroke-width=".60842">
  <path d="m189.26 177.41c-2.9016 0.78972-4.7481 3.948-3.8251 6.8435 5.8037 20.662 0.3961 40.008-6.726 51.327-1.5831 2.632-0.79153 6.0544 1.8466 7.6332 0.92298 0.52688 1.978 0.78973 2.9015 0.78973 1.8466 0 3.6925-0.92115 4.7481-2.632 10.683-16.977 13.717-40.14 7.913-60.276-0.79094-2.8948-3.8245-4.6057-6.858-3.6846z" fill="#c3d0e4"/>
  <path d="m75.302 268.48c-31.786-11.055-53.02-41.588-53.02-75.936 0-20.531 8.4412-41.061 23.081-56.196 15.3-15.925 35.875-24.61 57.769-24.61 12.002 0 24.136 2.5006 32.578 6.712 2.7695 1.4474 6.0671 0.26284 7.5176-2.5006 1.319-2.764 0.26406-6.0544-2.5061-7.5018-9.8916-5.0012-23.608-7.8966-37.589-7.8966-24.927 0-48.404 10.002-65.812 28.032-16.618 17.241-26.246 40.535-26.246 63.963 0 39.087 24.268 73.831 60.538 86.468 0.65953 0.26345 1.187 0.26345 1.8465 0.26345 2.242 0 4.4846-1.448 5.2756-3.6852 1.0556-2.8954-0.52749-6.0538-3.429-7.1069z" fill="#c3d0e4"/>
  <path d="m172.77 170.56c13.98-9.2126 22.949-24.084 26.114-42.904 2.242-13.95 0.5275-25.137 0.5275-25.664-0.26345-1.9737-1.5825-3.5531-3.429-4.3429-1.8465-0.78974-3.9565-0.39487-5.4076 0.78972l-84.807 65.411c1.4511-5.7909 0.39606-11.713-3.033-16.451-5.5396-7.3704-14.904-8.6864-22.29-5.7909l-1.055-0.65769c-5.4076-3.5538-11.079-4.3435-16.75-2.2378-10.947 4.08-19.52 18.557-23.213 31.06-0.26405 1.0526 0.26343 2.2371 1.319 2.632 0.26346 0.1313 0.52751 0.1313 0.92298 0.1313 0.79154 0 1.5825-0.39488 1.9786-1.1846 5.8031-11.713 15.431-21.846 22.421-23.557 1.9786-0.5269 3.6931-0.26344 5.1435 0.65771l0.39608 0.26342c-3.6931 4.6063-5.9351 10.529-6.7267 17.504-0.79155 7.2383 0.26406 15.135 2.6381 20.531 0.92296 2.1058 2.9015 3.2903 5.1436 3.2903 0.52748 0 1.187-0.13199 1.7145-0.26342 5.1436-1.7109 13.453-5.0012 20.311-10.134-0.92296 1.9743-1.4511 4.08-1.5825 6.3172-0.39607 5.1326 1.187 10.134 4.484 14.082 3.2976 3.9486 8.0457 6.4486 13.189 6.8435 0.52748 0 1.187 0.13199 1.7145 0.13199h0.52752c-4.7481 6.7121-6.4626 16.188-1.978 26.585 9.7596 22.373-2.5061 37.245-11.211 42.509-1.978 1.1846-3.0336 3.5531-2.3741 5.7909 0.65953 2.2371 2.6381 3.8166 5.0121 3.948h2.374c31.39 0 45.239-15.398 50.778-24.742 8.8366-15.004 8.4412-34.35-1.0556-50.406-4.8795-8.2909-14.376-15.134-25.059-13.687 1.3184-2.3692 2.11-4.8691 2.374-7.6332 0.26343-3.0269-0.13199-5.9223-1.3191-8.6864 2.5061 0.26344 5.0115 0.39486 7.6496 0.39486 10.683-0.39486 22.949-2.7634 34.556-10.528zm-96.543 6.4486c-0.5275-2.8955-0.79156-6.3172-0.39548-9.871 0.52749-4.6057 2.11-10.791 7.1221-14.345 1.187-0.92174 3.0336-1.448 4.8801-1.448 2.11 0 4.352 0.78972 5.8031 2.764 2.6375 3.6846 1.4505 8.5543-0.92358 11.713-3.165 4.0801-8.9687 8.1601-16.486 11.187zm35.347 18.557c-2.2426-0.13198-4.2206-1.1846-5.6716-2.8955-1.4505-1.7109-2.11-3.8166-1.978-6.0543 0.13155-2.2372 1.187-4.2109 2.9015-5.6589 1.4505-1.316 3.429-1.9743 5.2756-1.9743h0.65953c2.242 0.13199 4.2206 1.1846 5.671 2.8955 1.4511 1.7108 2.1106 3.8166 1.9786 6.0543-0.132 2.2372-1.187 4.2115-2.9016 5.6589-1.5831 1.4474-3.6931 2.1058-5.9351 1.9743zm20.839 11.45c3.429 0 7.1221 1.4474 10.419 5.1326 0.39608 0.39485 0.39608 0.92111 0.26406 1.316-1.9786 4.2114-6.1992 9.344-10.288 11.976-0.65954 0.39486-0.92299 1.316-0.65954 1.9743 0.26405 0.78973 1.187 1.1846 1.9786 1.0526 3.297-0.6577 8.0451-2.5 12.002-5.0006 0.39547-0.26345 0.65953-0.39487 1.055-0.65831 0.6595-0.52626 1.7145-0.13153 1.9786 0.65831 1.7145 4.8692 2.5054 9.8703 2.374 14.739 0 0.5269-0.39607 1.0532-0.92355 1.1846-4.2206 1.448-9.2321 2.2378-13.189 1.5794-0.92296-0.1313-1.8466 0.13153-2.11 1.0526-0.39607 0.92173 0.13199 1.7108 0.92298 2.2377 2.9015 1.7109 7.2541 3.5532 11.87 4.6063 0.79156 0.13153 1.3191 1.0526 0.92359 1.7109-0.65953 1.7109-1.4511 3.2897-2.374 4.8692-1.4511 2.5006-3.1656 4.7377-5.1442 6.7121-0.39548 0.39485-1.055 0.52627-1.5825 0.26343-2.11-1.0532-4.0886-2.3692-5.5396-3.5538-0.5275-0.5263-1.3184-0.5263-1.8465 0-0.52752 0.39484-0.79094 1.316-0.39548 1.9743 0.65954 1.316 1.8466 3.0269 3.1656 4.8691 0.39546 0.65831 0.26345 1.448-0.26403 1.8429-4.2206 2.632-8.9687 4.6063-14.376 5.9223-1.187 0.26283-1.978-0.92114-1.4505-1.9743 8.0451-13.029 7.2542-29.48 1.7145-42.246-4.3526-10.002 0-17.767 5.9351-20.662 1.319-1.0526 3.297-1.5788 5.5396-1.5788zm-12.398-40.009 68.848-53.169c-0.132 12.898-3.429 35.008-22.29 47.511-16.618 10.923-35.611 8.5543-46.557 5.6588z" fill="#485776"/>
 </g>
</svg>
